# xmcd
#
# Track frame offsets:
#	150
#	14623
#	29689
#	66802
#	80828
#
# Disc length: 1442 seconds
#
# Revision: 1
# Processed by: cddbd v1.5.2PL0 Copyright (c) Steve Scherf et al.
# Submitted via: audiograbber 1.83.01
#
DISCID=4105a005
DTITLE=Pandora Ft. JS16  - You Woke My Heart [CDSr)
DYEAR=2011
DGENRE=House
TTITLE0=You Woke My Heart (JS16 Radio Edit)
TTITLE1=You Woke My Heart (Niclas Kings Radio)
TTITLE2=You Woke My Heart (Matt Hewie Remix)
TTITLE3=You Woke My Heart (H7 Edit)
TTITLE4=You Woke My Heart (Niclas Kings Extended)
EXTD=TR.
EXTT0=
EXTT1=
EXTT2=
EXTT3=
EXTT4=
PLAYORDER=
